<svg width="29" height="20" viewBox="0 0 29 20" fill="none" xmlns="http://www.w3.org/2000/svg">
<path fill-rule="evenodd" clip-rule="evenodd" d="M25.8306 0.595514C27.0808 0.927334 28.0634 1.89543 28.3956 3.12275C29 5.35 29 10.0001 29 10.0001C29 10.0001 29 14.65 28.3956 16.8773C28.0588 18.109 27.0762 19.0772 25.8306 19.4045C23.57 20 14.5 20 14.5 20C14.5 20 5.43465 20 3.16945 19.4045C1.91924 19.0727 0.936553 18.1046 0.60442 16.8773C0 14.65 0 9.99994 0 9.99994C0 9.99994 0 5.35 0.60442 3.12275C0.941202 1.89096 1.92389 0.922754 3.16945 0.595514C5.43465 0 14.5 0 14.5 0C14.5 0 23.57 0 25.8306 0.595514ZM19.1365 9.99995L11.6028 14.2864V5.71366L19.1365 9.99995Z" fill="white"/>
</svg>
