<svg width="100" height="100" viewBox="0 0 100 100" fill="none" xmlns="http://www.w3.org/2000/svg">
<rect width="100" height="100" rx="16" fill="white"/>
<g clip-path="url(#clip0_35_90)">
<path d="M80.1353 50.5C80.1353 66.6805 66.699 79.9973 50.3717 79.9973C34.0449 79.9973 20.6082 66.6797 20.6082 50.5C20.6082 34.3185 33.7307 21.0027 50.3717 21.0027C66.3833 21.0027 80.1353 34.3193 80.1353 50.5Z" fill="#0F3A97"/>
<path d="M57.0852 66.0249C69.8011 71.2145 67.5948 58.1007 60.8165 48.0593C56.9746 42.3707 51.9644 37.6311 48.8043 35.3439C38.3262 27.7573 31.8578 32.3587 39.2568 47.3207C41.6491 52.1582 44.7216 55.4232 47.1215 58.5006C48.9542 60.8501 52.524 62.0265 51.2665 63.1408C49.8492 64.398 46.418 58.8532 46.418 58.8532C43.8839 55.8213 41.4684 52.5861 38.9789 48.146C33.2915 38.0055 34.1115 27.6554 44.4069 32.1638C53.1439 35.992 61.4891 46.7287 64.8449 54.3534C66.3944 57.8746 70.6196 71.8044 57.1622 66.1724" fill="white"/>
<path d="M17.5429 59.244C23.137 55.5481 28.4407 53.1618 37.4665 50.204C50.1496 46.0474 59.695 43.2534 71.4079 37.413C76.6506 34.7993 85.7472 28.9377 89 23.8422C88.0262 25.8144 85.009 29.6531 83.644 31.3505C67.7525 51.0904 33.9025 49.9712 17.7663 59.4479" fill="#F7410A"/>
<path d="M25.6583 44.8166C30.778 44.8565 30.2758 44.8064 30.3356 44.866C30.4249 44.866 34.4235 51.6972 34.4235 51.7565C34.4235 51.7853 34.3937 49.3286 34.3937 46.2559C34.3937 45.9011 33.4096 44.8662 33.4389 44.8662C34.9003 44.8662 36.8103 44.8958 36.8103 44.8958C36.0947 45.7238 35.9516 45.6555 35.9455 46.1676C35.9253 47.8127 35.9067 50.8541 35.9455 54.2695C35.9511 54.7816 36.3335 54.9794 36.9602 55.8666H32.2751C30.7533 53.3531 27.9647 48.6378 27.9786 48.6515C28.0001 48.6731 27.9185 51.6093 28.0079 53.9743C28.0379 54.7558 28.3961 55.0092 29.0529 55.7194C29.0529 55.7194 29.8083 55.6993 25.3824 55.7487C26.7252 55.0388 26.5467 54.1519 26.5462 54.1223C26.498 50.8541 26.5361 48.0598 26.5361 46.2559C26.5361 45.9602 26.5159 45.9895 25.5914 44.866M41.6663 49.864C42.0961 48.3834 42.4634 47.0602 42.6378 46.1971C42.6673 46.0491 42.3097 45.517 41.7428 44.9847L41.7026 44.902C44.4364 44.9108 47.2924 44.9261 47.2924 44.9261C48.0385 46.7295 49.739 51.7861 51.0222 54.8915C51.3614 55.7116 51.9472 55.8671 51.9472 55.8671C49.6198 55.8378 45.3007 55.8578 45.3236 55.8378C46.487 54.8022 46.3378 54.8022 45.8305 53.2952H42.1905C41.4444 55.01 42.423 55.8148 42.5482 55.8085C41.7198 55.8511 38.9083 55.8085 38.9083 55.8085C40.43 54.7433 40.3402 54.4183 40.3402 54.4183C40.7581 52.9429 41.2425 51.3266 41.6665 49.8637L43.16 49.864L42.5184 51.9043H45.4135L43.8019 47.8232L43.1603 49.8635L41.6668 49.8632M66.672 50.0117C67.1011 48.5316 67.4686 47.208 67.643 46.3448C67.6723 46.1971 67.3142 45.665 66.7475 45.1321L66.7074 45.05C69.4419 45.0588 72.2984 45.0738 72.2984 45.0738C73.0432 46.8777 74.7442 51.9338 76.0269 55.0393C76.3659 55.8604 76.9512 56.0148 76.9512 56.0148C74.6253 55.9856 70.3059 56.0056 70.3284 55.9856C71.492 54.9506 71.3433 54.9506 70.836 53.443H67.1953C66.4492 55.158 67.4272 55.9625 67.5524 55.9568C66.7248 55.9988 63.9125 55.9568 63.9125 55.9568C65.4342 54.892 65.3451 54.5665 65.3451 54.5665C65.7631 53.0907 66.2472 51.4751 66.672 50.0117H68.1653C67.8437 51.0326 67.5242 52.0527 67.5242 52.0527H70.4177L68.8061 47.9712C68.8061 47.9712 68.4863 48.9911 68.1653 50.0112L66.672 50.0117ZM61.9649 47.5878C61.9056 45.487 61.9649 44.8074 61.9649 44.8074C61.0396 45.5471 61.5068 45.4527 59.1905 45.0735C52.5159 43.981 52.0073 50.1627 55.6397 51.5492C58.6887 52.7136 59.7688 52.9419 59.3094 54.0329C59.1602 54.389 56.3855 55.6896 53.5212 53.0574L53.5795 56.7245C53.938 56.3586 54.9231 55.6896 54.9231 55.6896C54.9521 55.6896 58.0277 57.0335 60.8006 55.6305C65.068 53.4723 62.9382 49.9784 58.3841 48.5927C54.5942 47.4393 58.1751 44.748 61.9341 47.6169M50.7907 23.6815C50.7905 23.7452 50.7649 23.8063 50.7196 23.8514C50.6742 23.8965 50.6127 23.922 50.5484 23.9224C50.4842 23.922 50.4227 23.8965 50.3773 23.8514C50.332 23.8063 50.3064 23.7452 50.3061 23.6815C50.3061 23.5508 50.4159 23.4416 50.5484 23.4416C50.6125 23.4418 50.674 23.4671 50.7194 23.5121C50.7647 23.557 50.7904 23.6179 50.7907 23.6815ZM52.4717 27.3228C52.4717 27.4851 52.3359 27.6191 52.1734 27.6191C52.0943 27.6187 52.0185 27.5874 51.9625 27.5319C51.9066 27.4765 51.8749 27.4013 51.8745 27.3228C51.8745 27.1611 52.0093 27.0276 52.1734 27.0276C52.3362 27.0276 52.4717 27.1608 52.4717 27.3228ZM56.8328 33.2739C56.8328 33.4356 56.699 33.5696 56.5342 33.5696C56.4553 33.5691 56.3797 33.5378 56.3239 33.4824C56.2681 33.4271 56.2364 33.3522 56.2359 33.2739C56.2359 33.1116 56.3608 32.9774 56.5251 32.9774C56.6897 32.9779 56.8328 33.1116 56.8328 33.2739ZM49.8215 29.3744C49.8212 29.438 49.7956 29.499 49.7502 29.544C49.7048 29.589 49.6433 29.6143 49.5792 29.6145C49.515 29.6143 49.4534 29.589 49.408 29.544C49.3625 29.499 49.3368 29.4381 49.3364 29.3744C49.3364 29.2429 49.4462 29.134 49.5792 29.134C49.6434 29.1342 49.7049 29.1596 49.7503 29.2046C49.7957 29.2496 49.8213 29.3107 49.8215 29.3744ZM52.4339 30.7423C52.4334 30.8058 52.4078 30.8666 52.3625 30.9115C52.3172 30.9564 52.2559 30.9818 52.1918 30.9822C52.1277 30.9819 52.0663 30.9565 52.0209 30.9116C51.9755 30.8667 51.9498 30.8059 51.9493 30.7423C51.9493 30.6109 52.0591 30.5022 52.1918 30.5022C52.3243 30.5022 52.4339 30.6109 52.4339 30.7423ZM49.039 26.9159C49.039 27.0782 48.9042 27.2122 48.7407 27.2122C48.5771 27.2122 48.4423 27.0789 48.4423 26.9159C48.4423 26.7542 48.5771 26.62 48.7407 26.62C48.9042 26.62 49.039 26.7537 49.039 26.9159ZM45.0864 29.3005C45.0864 29.4325 44.9771 29.5409 44.8438 29.5409C44.7796 29.5406 44.7182 29.5151 44.6728 29.4701C44.6275 29.4251 44.6018 29.3642 44.6015 29.3005C44.6015 29.169 44.711 29.0601 44.8438 29.0601C44.908 29.0603 44.9696 29.0857 45.015 29.1307C45.0605 29.1758 45.0861 29.2368 45.0864 29.3005ZM45.7931 29.7805C45.7928 29.8443 45.7672 29.9054 45.7217 29.9506C45.6762 29.9957 45.6146 30.0211 45.5503 30.0214C45.486 30.0211 45.4244 29.9956 45.379 29.9505C45.3335 29.9054 45.3078 29.8443 45.3075 29.7805C45.3103 29.7185 45.3372 29.66 45.3824 29.6172C45.4276 29.5743 45.4877 29.5504 45.5503 29.5504C45.6128 29.5504 45.673 29.5743 45.7182 29.6172C45.7634 29.66 45.7903 29.7185 45.7931 29.7805ZM46.5024 30.2613C46.5022 30.325 46.4766 30.3861 46.4312 30.4312C46.3858 30.4763 46.3243 30.5018 46.2601 30.5022C46.1958 30.5019 46.1342 30.4764 46.0888 30.4312C46.0434 30.3861 46.0178 30.3251 46.0175 30.2613C46.0175 30.1303 46.1273 30.0217 46.2601 30.0217C46.3931 30.0217 46.5024 30.1301 46.5024 30.2613ZM45.4221 31.1858C45.4214 31.2494 45.3956 31.3103 45.3502 31.3552C45.3048 31.4002 45.2434 31.4256 45.1793 31.4262C45.115 31.4258 45.0536 31.4004 45.0081 31.3554C44.9627 31.3104 44.9369 31.2495 44.9364 31.1858C44.9364 31.0543 45.046 30.9456 45.1793 30.9456C45.3118 30.9456 45.4221 31.0543 45.4221 31.1858ZM39.7894 35.1038C39.789 35.1675 39.7633 35.2284 39.7178 35.2733C39.6723 35.3183 39.6108 35.3436 39.5466 35.3437C39.4136 35.3437 39.304 35.2355 39.304 35.1038C39.304 34.9721 39.4138 34.8632 39.5466 34.8632C39.6794 34.8632 39.7894 34.9718 39.7894 35.1038ZM40.8334 36.3611C40.8328 36.4247 40.8071 36.4855 40.7617 36.5305C40.7163 36.5754 40.6549 36.6008 40.5908 36.6012C40.5266 36.6008 40.4652 36.5754 40.4198 36.5305C40.3744 36.4856 40.3486 36.4247 40.348 36.3611C40.348 36.2289 40.4578 36.1207 40.5908 36.1207C40.7238 36.1207 40.8334 36.2289 40.8334 36.3611ZM40.0034 56.6549C40.003 56.7185 39.9773 56.7795 39.9319 56.8244C39.8865 56.8694 39.825 56.8947 39.7609 56.895C39.6279 56.895 39.5186 56.7863 39.5186 56.6549C39.5186 56.5234 39.6279 56.4142 39.7609 56.4142C39.8942 56.4142 40.0034 56.5234 40.0034 56.6549ZM40.1526 62.2536C40.1526 62.4159 40.0178 62.5496 39.8543 62.5496C39.6907 62.5496 39.5559 62.4166 39.5559 62.2536C39.5559 62.0918 39.6907 61.9581 39.8543 61.9581C39.9332 61.9585 40.0088 61.9898 40.0646 62.0451C40.1205 62.1004 40.1521 62.1753 40.1526 62.2536ZM36.9443 65.1212C36.9438 65.1847 36.9182 65.2455 36.8729 65.2904C36.8276 65.3353 36.7663 65.3607 36.7022 65.3611C36.6381 65.3608 36.5768 65.3354 36.5314 65.2905C36.486 65.2456 36.4602 65.1848 36.4597 65.1212C36.4597 64.9887 36.5695 64.8806 36.7022 64.8806C36.8348 64.8806 36.9443 64.9885 36.9443 65.1212ZM33.1032 66.2826C33.1027 66.361 33.071 66.436 33.0151 66.4914C32.9591 66.5469 32.8834 66.5781 32.8044 66.5785C32.7253 66.5783 32.6496 66.547 32.5937 66.4916C32.5378 66.4361 32.5063 66.361 32.506 66.2826C32.506 66.1206 32.6408 65.9866 32.8044 65.9866C32.8834 65.9871 32.959 66.0184 33.015 66.0738C33.0709 66.1291 33.1026 66.2042 33.1032 66.2826ZM32.3197 63.6962C32.3197 63.8577 32.1849 63.9914 32.0219 63.9914C31.943 63.991 31.8675 63.9598 31.8116 63.9045C31.7558 63.8493 31.7241 63.7744 31.7236 63.6962C31.7239 63.6177 31.7554 63.5425 31.8113 63.487C31.8671 63.4314 31.9428 63.4 32.0219 63.3994C32.1849 63.4002 32.3197 63.5337 32.3197 63.6962ZM31.8727 65.3413C31.8727 65.4733 31.7629 65.5814 31.6302 65.5814C31.4974 65.5814 31.3873 65.4733 31.3873 65.3413C31.3873 65.2103 31.4974 65.1009 31.6302 65.1009C31.7629 65.1009 31.8727 65.2096 31.8727 65.3413ZM29.0001 63.9744C28.9997 64.0379 28.9741 64.0987 28.9289 64.1436C28.8836 64.1886 28.8223 64.214 28.7583 64.2145C28.6941 64.2142 28.6326 64.1889 28.5872 64.1439C28.5417 64.099 28.516 64.038 28.5155 63.9744C28.5155 63.8434 28.625 63.7342 28.7583 63.7342C28.8906 63.7342 29.0001 63.8427 29.0001 63.9744ZM39.0332 68.594C39.0332 68.726 38.933 68.8347 38.8005 68.8347C38.6675 68.8347 38.5483 68.726 38.5483 68.594C38.5483 68.4626 38.6581 68.3536 38.7906 68.3536C38.9242 68.3536 39.0332 68.4623 39.0332 68.594ZM42.055 66.3955C42.055 66.5578 41.9298 66.692 41.7657 66.692C41.6022 66.692 41.4583 66.5585 41.4583 66.3955C41.4583 66.2337 41.5931 66.1 41.7566 66.1C41.8356 66.1004 41.9111 66.1317 41.967 66.187C42.0228 66.2423 42.0545 66.3172 42.055 66.3955ZM42.4008 69.2225C42.4008 69.3545 42.2814 69.4637 42.1491 69.4637C42.0848 69.4633 42.0232 69.4377 41.9778 69.3926C41.9323 69.3474 41.9067 69.2863 41.9063 69.2225C41.9063 69.0916 42.0159 68.9829 42.1491 68.9829C42.2814 68.9826 42.4008 69.0908 42.4008 69.2225ZM54.8191 66.5232C54.8186 66.5868 54.793 66.6476 54.7478 66.6926C54.7026 66.7376 54.6414 66.7632 54.5773 66.7638C54.513 66.7634 54.4515 66.738 54.406 66.693C54.3604 66.6479 54.3346 66.587 54.334 66.5232C54.334 66.3912 54.4435 66.2831 54.5773 66.2831C54.7096 66.2831 54.8191 66.3912 54.8191 66.5232ZM49.039 68.5562C49.0388 68.6199 49.0131 68.6808 48.9678 68.7258C48.9224 68.7708 48.8609 68.7961 48.7967 68.7963C48.7326 68.796 48.6712 68.7706 48.6258 68.7257C48.5805 68.6807 48.5548 68.6198 48.5544 68.5562C48.5544 68.4253 48.6642 68.3161 48.7967 68.3161C48.93 68.3161 49.039 68.4248 49.039 68.5562ZM64.5925 71.4784C64.5919 71.542 64.5662 71.6029 64.5208 71.6478C64.4754 71.6927 64.414 71.7181 64.3499 71.7185C64.2857 71.7183 64.2242 71.6929 64.1787 71.648C64.1332 71.603 64.1074 71.5421 64.1068 71.4784C64.1068 71.3472 64.2169 71.2383 64.3499 71.2383C64.4824 71.2383 64.5925 71.3467 64.5925 71.4784ZM65.8593 60.1104C65.8588 60.1889 65.8272 60.264 65.7712 60.3195C65.7153 60.3749 65.6395 60.4062 65.5604 60.4066C65.4814 60.4062 65.4057 60.3748 65.3498 60.3194C65.2939 60.2639 65.2623 60.1888 65.2618 60.1104C65.2618 59.9482 65.3964 59.8142 65.5604 59.8142C65.6396 59.8145 65.7153 59.8458 65.7713 59.9013C65.8273 59.9568 65.8589 60.0319 65.8593 60.1104ZM63.4741 61.718C63.4736 61.7818 63.4478 61.8428 63.4023 61.8878C63.3568 61.9329 63.2953 61.9583 63.231 61.9586C63.0987 61.9586 62.9889 61.8497 62.9889 61.718C62.9889 61.5863 63.0987 61.4781 63.231 61.4781C63.3643 61.4781 63.4741 61.586 63.4741 61.718ZM65.8245 62.1812C65.8245 62.3432 65.6899 62.4777 65.5256 62.4777C65.3613 62.4777 65.2268 62.344 65.2268 62.1812C65.2268 62.0195 65.3613 61.8853 65.5256 61.8853C65.6899 61.8853 65.8245 62.0195 65.8245 62.1812ZM63.4741 65.0458C63.4736 65.1096 63.4478 65.1705 63.4023 65.2155C63.3568 65.2604 63.2952 65.2858 63.231 65.286C63.1669 65.2855 63.1056 65.2601 63.0604 65.2151C63.0151 65.1702 62.9894 65.1094 62.9889 65.0458C62.9889 64.9139 63.0987 64.8052 63.231 64.8052C63.3643 64.8052 63.4741 64.9136 63.4741 65.0458ZM69.552 58.5028C69.552 58.6341 69.4417 58.7432 69.3094 58.7432C69.2453 58.7427 69.184 58.7172 69.1388 58.6722C69.0935 58.6272 69.0678 58.5664 69.0674 58.5028C69.0674 58.3711 69.1769 58.263 69.3094 58.263C69.4419 58.263 69.552 58.3711 69.552 58.5028ZM70.1401 59.9627C70.1401 60.1247 70.0156 60.2589 69.8513 60.2589C69.6875 60.2589 69.5434 60.1254 69.5434 59.9627C69.5434 59.8004 69.6779 59.667 69.8415 59.667C70.0055 59.6675 70.1401 59.8004 70.1401 59.9627ZM74.3275 61.7005C74.3275 61.8625 74.1942 61.9964 74.0289 61.9964C73.9498 61.9962 73.874 61.9649 73.818 61.9095C73.7621 61.8541 73.7304 61.7789 73.73 61.7005C73.7305 61.622 73.7621 61.5469 73.8181 61.4914C73.874 61.436 73.9498 61.4046 74.0289 61.4042C74.108 61.4045 74.1838 61.4358 74.2397 61.4913C74.2957 61.5468 74.3272 61.622 74.3275 61.7005ZM70.0742 64.7882C70.0736 64.8518 70.0478 64.9127 70.0023 64.9577C69.9568 65.0026 69.8953 65.028 69.8311 65.0283C69.767 65.028 69.7056 65.0026 69.6602 64.9576C69.6148 64.9127 69.589 64.8518 69.5886 64.7882C69.5886 64.6562 69.6986 64.5475 69.8311 64.5475C69.9637 64.5475 70.0742 64.6555 70.0742 64.7882ZM72.76 62.2739C72.7597 62.3375 72.7341 62.3984 72.6888 62.4433C72.6435 62.4883 72.5821 62.5137 72.518 62.514C72.4539 62.5136 72.3925 62.4882 72.3472 62.4433C72.3018 62.3983 72.2761 62.3375 72.2757 62.2739C72.2757 62.1427 72.386 62.0335 72.518 62.0335C72.6505 62.0335 72.76 62.1419 72.76 62.2739ZM72.2653 66.1551C72.265 66.2187 72.2394 66.2796 72.1941 66.3246C72.1487 66.3695 72.0874 66.3949 72.0233 66.3952C71.959 66.3951 71.8974 66.3698 71.8519 66.3248C71.8064 66.2799 71.7806 66.2189 71.7802 66.1551C71.7802 66.0242 71.8898 65.9147 72.0233 65.9147C72.1558 65.9147 72.2653 66.0234 72.2653 66.1551ZM73.4037 59.7048C73.4037 59.9078 73.2351 60.0744 73.0304 60.0744C72.8259 60.0744 72.6576 59.9078 72.6576 59.7048C72.6576 59.5019 72.8259 59.3354 73.0304 59.3354C73.2351 59.3354 73.4037 59.5019 73.4037 59.7048Z" fill="white"/>
<path d="M73.0296 58.578L72.9188 59.5943L71.9024 59.7055L72.9276 59.8157L73.0397 60.8696L73.1518 59.8157L74.1584 59.686L73.1427 59.5936L73.0296 58.578ZM70.7913 66.1348C70.7913 66.3382 70.6229 66.5052 70.4182 66.5052C70.3193 66.5048 70.2246 66.4656 70.1547 66.3963C70.0848 66.3269 70.0453 66.2329 70.0449 66.1348C70.0449 65.932 70.2135 65.7655 70.4182 65.7655C70.5169 65.7659 70.6115 65.8049 70.6813 65.8741C70.7512 65.9432 70.7907 66.0369 70.7913 66.1348Z" fill="white"/>
<path d="M70.4205 65.008L70.3084 66.0249L69.2925 66.1353L70.3178 66.2465L70.4301 67.2994L70.5422 66.2465L71.5483 66.1168L70.5318 66.0241L70.4205 65.008ZM42.9687 35.6024C42.9687 35.8052 42.8003 35.9719 42.5959 35.9719C42.4971 35.9717 42.4024 35.9327 42.3325 35.8635C42.2626 35.7942 42.2231 35.7004 42.2226 35.6024C42.2226 35.399 42.3907 35.2325 42.5959 35.2325C42.8003 35.233 42.9687 35.3995 42.9687 35.6024Z" fill="white"/>
<path d="M42.5951 34.4751L42.4831 35.4914L41.4664 35.6026L42.4921 35.7125L42.6042 36.767L42.7158 35.7125L43.7229 35.5838L42.7062 35.4909L42.5951 34.4751ZM56.8431 26.6575C56.8431 26.8603 56.6745 27.0274 56.4698 27.0274C56.2651 27.0274 56.0973 26.8603 56.0973 26.6575C56.0973 26.4542 56.2649 26.2872 56.4698 26.2872C56.6748 26.2872 56.8431 26.4547 56.8431 26.6575Z" fill="white"/>
<path d="M56.4698 25.5292L56.3588 26.5463L55.3426 26.6575L56.3681 26.7679L56.4792 27.8216L56.5912 26.7679L57.5978 26.6382L56.5814 26.5458L56.4698 25.5292ZM39.9752 72.0521C39.9752 72.2554 39.8068 72.4219 39.6024 72.4219C39.5036 72.4216 39.4089 72.3825 39.3389 72.3133C39.269 72.244 39.2295 72.1501 39.2291 72.0521C39.2291 71.8495 39.3974 71.682 39.6024 71.682C39.8068 71.6822 39.9752 71.8498 39.9752 72.0521Z" fill="white"/>
<path d="M39.6112 70.923L39.4996 71.9401L38.4832 72.0508L39.5087 72.1612L39.6206 73.2149L39.7321 72.1612L40.7392 72.032L39.723 71.9394L39.6112 70.923Z" fill="white"/>
<path d="M88.9972 23.8425C84.4612 37.1919 66.2909 47.5002 50.9951 57.3405C41.7675 63.2793 32.6059 70.1145 26.2988 75.9303C24.6365 77.464 26.6376 75.3566 26.0005 76.0044C34.8023 65.9505 44.9273 59.9619 50.5224 56.1921C59.9848 49.8147 65.3668 48.2073 81.6918 33.2897" fill="#F7410A"/>
<path d="M21.3262 56.9153C19.6972 57.7053 18.238 58.4863 17 59.2488L17.7532 59.5207C18.836 58.8594 20.1359 58.1695 21.5052 57.5618M29.9262 71.854C28.3763 73.1947 26.8521 74.5643 25.3543 75.9621L25.2862 76.9815C26.6997 75.5364 28.436 73.9771 30.4398 72.322" fill="#EE293D"/>
<path d="M57.0852 66.0249C69.8011 71.2145 67.5948 58.1007 60.8165 48.0593C56.9744 42.3707 52.2367 37.858 48.804 35.3439C44.7958 32.408 44.4046 32.1646 44.4046 32.1646C53.3554 36.3791 61.4869 46.7292 64.8421 54.3544C66.3921 57.8753 70.6171 71.8052 57.1594 66.1731" fill="white"/>
</g>
<defs>
<clipPath id="clip0_35_90">
<rect width="72" height="59" fill="white" transform="translate(17 21)"/>
</clipPath>
</defs>
</svg>
