<svg width="85" height="70" viewBox="0 0 85 70" fill="none" xmlns="http://www.w3.org/2000/svg">
<g clip-path="url(#clip0_3_22)">
<path d="M74.5347 35C74.5347 54.1972 58.6724 69.9968 39.3971 69.9968C20.1224 69.9968 4.25958 54.1963 4.25958 35C4.25958 15.8017 19.7515 0.00318909 39.3971 0.00318909C58.2997 0.00318909 74.5347 15.8026 74.5347 35Z" fill="#0F3A97"/>
<path d="M47.3228 53.4194C62.3346 59.5765 59.73 44.0178 51.7278 32.1043C47.1923 25.3551 41.2774 19.7318 37.5467 17.0182C25.1768 8.0171 17.5405 13.4764 26.2754 31.2279C29.0996 36.9673 32.7269 40.841 35.5601 44.4922C37.7237 47.2798 41.938 48.6755 40.4535 49.9975C38.7803 51.4892 34.7296 44.9105 34.7296 44.9105C31.7379 41.3134 28.8863 37.475 25.9473 32.2071C19.233 20.176 20.2011 7.89619 32.3553 13.2452C42.6699 17.7871 52.5219 30.5256 56.4835 39.5719C58.3128 43.7495 63.3009 60.2764 47.4137 53.5944" fill="white"/>
<path d="M0.640961 45.3743C7.24505 40.9893 13.5065 38.158 24.1618 34.6488C39.1349 29.7172 50.4039 26.4023 64.2315 19.4731C70.4208 16.3721 81.16 9.41757 85 3.37215C83.8504 5.71201 80.2884 10.2663 78.6769 12.2803C59.9162 35.7005 19.9544 34.3726 0.904671 45.6161" fill="#F7410A"/>
<path d="M10.2215 28.257C16.2657 28.3043 15.6727 28.2448 15.7434 28.3155C15.8488 28.3155 20.5694 36.4204 20.5694 36.4908C20.5694 36.5249 20.5343 33.6102 20.5343 29.9647C20.5343 29.5437 19.3724 28.3158 19.407 28.3158C21.1323 28.3158 23.3871 28.3509 23.3871 28.3509C22.5423 29.3334 22.3734 29.2523 22.3662 29.8598C22.3424 31.8117 22.3203 35.4201 22.3662 39.4723C22.3728 40.0799 22.8242 40.3146 23.5641 41.3672H18.033C16.2365 38.385 12.9445 32.7906 12.9608 32.8069C12.9862 32.8325 12.8899 36.3161 12.9954 39.1221C13.0309 40.0493 13.4537 40.3499 14.229 41.1925C14.229 41.1925 15.1209 41.1687 9.89584 41.2272C11.4811 40.385 11.2704 39.3327 11.2698 39.2977C11.2129 35.4201 11.2579 32.1049 11.2579 29.9647C11.2579 29.6138 11.2341 29.6486 10.1426 28.3155M29.1199 34.2454C29.6273 32.4887 30.0609 30.9189 30.2668 29.8949C30.3017 29.7193 29.8794 29.088 29.2102 28.4564L29.1628 28.3583C32.3902 28.3687 35.7618 28.3868 35.7618 28.3868C36.6426 30.5265 38.6501 36.5258 40.165 40.2103C40.5655 41.1833 41.2571 41.3678 41.2571 41.3678C38.5095 41.333 33.4105 41.3568 33.4376 41.333C34.811 40.1042 34.6349 40.1042 34.0359 38.3164H29.7388C28.858 40.3508 30.0132 41.3057 30.161 41.2982C29.1831 41.3487 25.8639 41.2982 25.8639 41.2982C27.6604 40.0344 27.5543 39.6488 27.5543 39.6488C28.0478 37.8984 28.6196 35.9807 29.1202 34.2451L30.8833 34.2454L30.1259 36.6661H33.5437L31.6411 31.8241L30.8836 34.2448L29.1205 34.2445M58.6406 34.4207C59.1471 32.6646 59.581 31.0942 59.7869 30.0701C59.8215 29.8949 59.3986 29.2636 58.7297 28.6314L58.6823 28.5339C61.9106 28.5443 65.2828 28.5621 65.2828 28.5621C66.1621 30.7023 68.1702 36.7011 69.6845 40.3856C70.0847 41.3597 70.7757 41.543 70.7757 41.543C68.0299 41.5083 62.9306 41.532 62.9571 41.5083C64.3308 40.2804 64.1552 40.2804 63.5563 38.4917H59.2583C58.3774 40.5264 59.5321 41.4809 59.6799 41.4741C58.7028 41.524 55.3828 41.4741 55.3828 41.4741C57.1793 40.2109 57.0741 39.8247 57.0741 39.8247C57.5676 38.0737 58.1391 36.1569 58.6406 34.4207H60.4034C60.0238 35.6319 59.6465 36.8422 59.6465 36.8422H63.0626L61.16 31.9997C61.16 31.9997 60.7824 33.2098 60.4034 34.4201L58.6406 34.4207ZM53.0836 31.5449C53.0136 29.0523 53.0836 28.246 53.0836 28.246C51.9912 29.1236 52.5427 29.0116 49.8082 28.5618C41.9285 27.2656 41.328 34.5998 45.6162 36.2448C49.2158 37.6262 50.4909 37.8972 49.9486 39.1916C49.7724 39.6141 46.4968 41.1571 43.1153 38.0341L43.1842 42.385C43.6073 41.9509 44.7703 41.1571 44.7703 41.1571C44.8046 41.1571 48.4354 42.7516 51.709 41.087C56.7469 38.5264 54.2326 34.3812 48.8562 32.7371C44.382 31.3687 48.6094 28.1756 53.0472 31.5793M39.8918 3.18142C39.8916 3.25704 39.8614 3.32951 39.8078 3.38304C39.7542 3.43657 39.6816 3.46683 39.6057 3.46722C39.5299 3.46675 39.4573 3.43647 39.4038 3.38296C39.3502 3.32944 39.32 3.25702 39.3197 3.18142C39.3197 3.02634 39.4493 2.89681 39.6057 2.89681C39.6814 2.89705 39.754 2.92709 39.8075 2.9804C39.8611 3.0337 39.8914 3.10596 39.8918 3.18142ZM41.8763 7.50166C41.8763 7.69417 41.716 7.85311 41.5241 7.85311C41.4307 7.85272 41.3413 7.81558 41.2752 7.74976C41.2091 7.68394 41.1718 7.59477 41.1713 7.50166C41.1713 7.30974 41.3304 7.15139 41.5241 7.15139C41.7163 7.15139 41.8763 7.30944 41.8763 7.50166ZM47.0248 14.5622C47.0248 14.7541 46.8669 14.9131 46.6723 14.9131C46.5791 14.9125 46.4899 14.8753 46.424 14.8096C46.3581 14.744 46.3208 14.6551 46.3201 14.5622C46.3201 14.3697 46.4676 14.2105 46.6616 14.2105C46.8558 14.2111 47.0248 14.3697 47.0248 14.5622ZM38.7476 9.93569C38.7472 10.0112 38.717 10.0835 38.6634 10.1369C38.6098 10.1903 38.5372 10.2204 38.4615 10.2206C38.3857 10.2204 38.3131 10.1903 38.2594 10.1369C38.2057 10.0836 38.1753 10.0113 38.1748 9.93569C38.1748 9.77972 38.3045 9.65048 38.4615 9.65048C38.5373 9.65072 38.6099 9.68084 38.6635 9.73428C38.7171 9.78771 38.7473 9.86012 38.7476 9.93569ZM41.8316 11.5587C41.8311 11.634 41.8008 11.7062 41.7473 11.7594C41.6938 11.8127 41.6215 11.8428 41.5459 11.8433C41.4702 11.8429 41.3977 11.8128 41.3441 11.7595C41.2905 11.7063 41.2601 11.6341 41.2595 11.5587C41.2595 11.4027 41.3891 11.2738 41.5459 11.2738C41.7023 11.2738 41.8316 11.4027 41.8316 11.5587ZM37.8238 7.01889C37.8238 7.2114 37.6647 7.37034 37.4716 7.37034C37.2785 7.37034 37.1194 7.21229 37.1194 7.01889C37.1194 6.82697 37.2785 6.66773 37.4716 6.66773C37.6647 6.66773 37.8238 6.82638 37.8238 7.01889ZM33.1575 9.84805C33.1575 10.0046 33.0285 10.1333 32.8711 10.1333C32.7954 10.1329 32.7229 10.1027 32.6693 10.0493C32.6157 9.99588 32.5855 9.92357 32.5851 9.84805C32.5851 9.69208 32.7144 9.56284 32.8711 9.56284C32.947 9.56308 33.0196 9.59319 33.0733 9.64662C33.1269 9.70005 33.1572 9.77245 33.1575 9.84805ZM33.9918 10.4176C33.9915 10.4933 33.9612 10.5658 33.9075 10.6193C33.8538 10.6728 33.7811 10.703 33.7052 10.7034C33.6293 10.703 33.5566 10.6727 33.5029 10.6192C33.4492 10.5657 33.4189 10.4932 33.4185 10.4176C33.4219 10.344 33.4536 10.2746 33.5069 10.2237C33.5603 10.1729 33.6313 10.1445 33.7052 10.1445C33.779 10.1445 33.85 10.1729 33.9034 10.2237C33.9568 10.2746 33.9885 10.344 33.9918 10.4176ZM34.8291 10.988C34.8289 11.0636 34.7987 11.1361 34.7451 11.1896C34.6916 11.2431 34.6189 11.2734 34.5431 11.2738C34.4672 11.2734 34.3946 11.2431 34.3409 11.1896C34.2873 11.1361 34.257 11.0636 34.2567 10.988C34.2567 10.8326 34.3864 10.7037 34.5431 10.7037C34.7001 10.7037 34.8291 10.8323 34.8291 10.988ZM33.5538 12.0848C33.553 12.1603 33.5226 12.2325 33.4689 12.2858C33.4153 12.3392 33.3429 12.3694 33.2671 12.37C33.1913 12.3696 33.1187 12.3395 33.0651 12.2861C33.0114 12.2327 32.981 12.1604 32.9805 12.0848C32.9805 11.9288 33.1098 11.7999 33.2671 11.7999C33.4236 11.7999 33.5538 11.9288 33.5538 12.0848ZM26.9041 16.7333C26.9037 16.8089 26.8733 16.8812 26.8196 16.9345C26.7659 16.9878 26.6932 17.0178 26.6175 17.0179C26.4604 17.0179 26.3311 16.8896 26.3311 16.7333C26.3311 16.5771 26.4607 16.4478 26.6175 16.4478C26.7742 16.4478 26.9041 16.5768 26.9041 16.7333ZM28.1366 18.225C28.1359 18.3005 28.1055 18.3727 28.052 18.426C27.9984 18.4793 27.9259 18.5094 27.8502 18.5099C27.7745 18.5094 27.702 18.4793 27.6483 18.426C27.5947 18.3727 27.5643 18.3005 27.5636 18.225C27.5636 18.0681 27.6932 17.9398 27.8502 17.9398C28.0072 17.9398 28.1366 18.0681 28.1366 18.225ZM27.1568 42.3024C27.1563 42.3779 27.126 42.4502 27.0724 42.5035C27.0188 42.5569 26.9462 42.587 26.8705 42.5873C26.7134 42.5873 26.5844 42.4584 26.5844 42.3024C26.5844 42.1464 26.7134 42.0169 26.8705 42.0169C27.0278 42.0169 27.1568 42.1464 27.1568 42.3024ZM27.3329 48.945C27.3329 49.1375 27.1738 49.2961 26.9807 49.2961C26.7876 49.2961 26.6285 49.1384 26.6285 48.945C26.6285 48.753 26.7876 48.5944 26.9807 48.5944C27.0739 48.5949 27.1631 48.6319 27.229 48.6975C27.295 48.7632 27.3323 48.8521 27.3329 48.945ZM23.5453 52.3472C23.5448 52.4226 23.5145 52.4947 23.461 52.5479C23.4075 52.6012 23.3352 52.6313 23.2596 52.6318C23.1839 52.6314 23.1114 52.6013 23.0578 52.5481C23.0042 52.4948 22.9738 52.4226 22.9732 52.3472C22.9732 52.19 23.1028 52.0617 23.2596 52.0617C23.416 52.0617 23.5453 52.1897 23.5453 52.3472ZM19.0107 53.7251C19.0101 53.8181 18.9727 53.9072 18.9066 53.9729C18.8406 54.0386 18.7512 54.0758 18.6579 54.0762C18.5646 54.0759 18.4752 54.0388 18.4092 53.973C18.3432 53.9072 18.306 53.8181 18.3057 53.7251C18.3057 53.5329 18.4648 53.3739 18.6579 53.3739C18.7512 53.3745 18.8405 53.4116 18.9065 53.4773C18.9726 53.5431 19.01 53.6321 19.0107 53.7251ZM18.0858 50.6565C18.0858 50.8481 17.9266 51.0067 17.7342 51.0067C17.641 51.0063 17.5519 50.9692 17.4859 50.9037C17.42 50.8381 17.3826 50.7493 17.3819 50.6565C17.3823 50.5634 17.4195 50.4742 17.4855 50.4083C17.5514 50.3424 17.6408 50.305 17.7342 50.3044C17.9266 50.3053 18.0858 50.4637 18.0858 50.6565ZM17.558 52.6083C17.558 52.7649 17.4284 52.8932 17.2717 52.8932C17.115 52.8932 16.985 52.7649 16.985 52.6083C16.985 52.453 17.115 52.3231 17.2717 52.3231C17.4284 52.3231 17.558 52.4521 17.558 52.6083ZM14.1668 50.9865C14.1663 51.0619 14.1361 51.134 14.0827 51.1874C14.0292 51.2407 13.9569 51.2709 13.8813 51.2714C13.8055 51.2711 13.7329 51.241 13.6793 51.1877C13.6256 51.1344 13.5952 51.0621 13.5946 50.9865C13.5946 50.8312 13.724 50.7016 13.8813 50.7016C14.0374 50.7016 14.1668 50.8303 14.1668 50.9865ZM26.0114 56.4675C26.0114 56.624 25.8931 56.753 25.7367 56.753C25.5796 56.753 25.439 56.624 25.439 56.4675C25.439 56.3115 25.5686 56.1823 25.725 56.1823C25.8827 56.1823 26.0114 56.3112 26.0114 56.4675ZM29.5788 53.8591C29.5788 54.0516 29.431 54.2108 29.2373 54.2108C29.0442 54.2108 28.8744 54.0525 28.8744 53.8591C28.8744 53.6671 29.0335 53.5085 29.2266 53.5085C29.3197 53.509 29.409 53.546 29.4749 53.6117C29.5408 53.6773 29.5782 53.7662 29.5788 53.8591ZM29.987 57.2132C29.987 57.3697 29.8461 57.4993 29.6899 57.4993C29.614 57.4988 29.5413 57.4685 29.4876 57.4149C29.434 57.3614 29.4037 57.2889 29.4033 57.2132C29.4033 57.0578 29.5326 56.9289 29.6899 56.9289C29.8461 56.9286 29.987 57.0569 29.987 57.2132ZM44.6475 54.0106C44.647 54.086 44.6168 54.1581 44.5634 54.2115C44.51 54.2649 44.4377 54.2953 44.3621 54.2961C44.2862 54.2956 44.2135 54.2654 44.1598 54.212C44.106 54.1586 44.0755 54.0862 44.0748 54.0106C44.0748 53.854 44.2041 53.7257 44.3621 53.7257C44.5182 53.7257 44.6475 53.854 44.6475 54.0106ZM37.8238 56.4226C37.8235 56.4981 37.7933 56.5705 37.7397 56.6238C37.6861 56.6772 37.6135 56.7073 37.5378 56.7075C37.4621 56.7071 37.3896 56.677 37.336 56.6237C37.2825 56.5703 37.2522 56.4981 37.2517 56.4226C37.2517 56.2672 37.3813 56.1377 37.5378 56.1377C37.6951 56.1377 37.8238 56.2667 37.8238 56.4226ZM56.1855 59.8896C56.1849 59.9651 56.1545 60.0373 56.1009 60.0906C56.0473 60.1439 55.9749 60.1741 55.8992 60.1745C55.8234 60.1742 55.7507 60.1441 55.697 60.0908C55.6433 60.0375 55.6128 59.9652 55.6122 59.8896C55.6122 59.734 55.7421 59.6047 55.8992 59.6047C56.0556 59.6047 56.1855 59.7334 56.1855 59.8896ZM57.6811 46.4022C57.6805 46.4953 57.6432 46.5844 57.5771 46.6502C57.5111 46.716 57.4216 46.7532 57.3283 46.7536C57.235 46.7531 57.1456 46.7159 57.0796 46.6501C57.0136 46.5843 56.9763 46.4952 56.9758 46.4022C56.9758 46.2097 57.1346 46.0507 57.3283 46.0507C57.4217 46.0511 57.5111 46.0883 57.5772 46.1541C57.6433 46.2199 57.6806 46.3091 57.6811 46.4022ZM54.8652 48.3095C54.8646 48.3851 54.8342 48.4575 54.7805 48.511C54.7268 48.5644 54.6541 48.5946 54.5782 48.595C54.4221 48.595 54.2925 48.4658 54.2925 48.3095C54.2925 48.1532 54.4221 48.0249 54.5782 48.0249C54.7356 48.0249 54.8652 48.1529 54.8652 48.3095ZM57.64 48.8591C57.64 49.0513 57.4811 49.2108 57.2872 49.2108C57.0932 49.2108 56.9343 49.0522 56.9343 48.8591C56.9343 48.6672 57.0932 48.5079 57.2872 48.5079C57.4811 48.5079 57.64 48.6672 57.64 48.8591ZM54.8652 52.2578C54.8646 52.3334 54.8342 52.4057 54.7805 52.459C54.7267 52.5124 54.6541 52.5424 54.5782 52.5427C54.5026 52.5421 54.4302 52.5119 54.3768 52.4586C54.3233 52.4053 54.293 52.3332 54.2925 52.2578C54.2925 52.1012 54.4221 51.9723 54.5782 51.9723C54.7356 51.9723 54.8652 52.1009 54.8652 52.2578ZM62.0405 44.4949C62.0405 44.6506 61.9103 44.7801 61.7541 44.7801C61.6785 44.7795 61.6061 44.7492 61.5527 44.6959C61.4992 44.6425 61.4689 44.5703 61.4684 44.4949C61.4684 44.3386 61.5977 44.2103 61.7541 44.2103C61.9106 44.2103 62.0405 44.3386 62.0405 44.4949ZM62.7348 46.2269C62.7348 46.4191 62.5879 46.5784 62.3939 46.5784C62.2005 46.5784 62.0304 46.42 62.0304 46.2269C62.0304 46.0344 62.1892 45.876 62.3823 45.876C62.576 45.8766 62.7348 46.0344 62.7348 46.2269ZM67.6782 48.2887C67.6782 48.4809 67.5209 48.6398 67.3257 48.6398C67.2324 48.6395 67.1429 48.6025 67.0768 48.5367C67.0107 48.4709 66.9734 48.3818 66.9729 48.2887C66.9735 48.1956 67.0108 48.1065 67.0769 48.0407C67.1429 47.9749 67.2324 47.9377 67.3257 47.9372C67.4191 47.9375 67.5086 47.9747 67.5746 48.0405C67.6407 48.1064 67.6779 48.1956 67.6782 48.2887ZM62.657 51.9521C62.6563 52.0276 62.6258 52.0999 62.5721 52.1532C62.5184 52.2065 62.4458 52.2366 62.3701 52.237C62.2943 52.2366 62.2218 52.2065 62.1682 52.1531C62.1146 52.0998 62.0843 52.0276 62.0837 51.9521C62.0837 51.7955 62.2136 51.6666 62.3701 51.6666C62.5265 51.6666 62.657 51.7946 62.657 51.9521ZM65.8278 48.969C65.8274 49.0445 65.7972 49.1167 65.7437 49.17C65.6902 49.2234 65.6177 49.2535 65.542 49.2539C65.4664 49.2535 65.3939 49.2233 65.3404 49.17C65.2868 49.1167 65.2565 49.0445 65.256 48.969C65.256 48.8133 65.3862 48.6838 65.542 48.6838C65.6985 48.6838 65.8278 48.8125 65.8278 48.969ZM65.2438 53.5739C65.2434 53.6493 65.2131 53.7215 65.1596 53.7749C65.1061 53.8282 65.0337 53.8584 64.958 53.8588C64.8821 53.8586 64.8094 53.8286 64.7557 53.7752C64.7019 53.7219 64.6715 53.6495 64.671 53.5739C64.671 53.4185 64.8004 53.2887 64.958 53.2887C65.1144 53.2887 65.2438 53.4176 65.2438 53.5739ZM66.5876 45.9209C66.5876 46.1618 66.3886 46.3594 66.1469 46.3594C65.9056 46.3594 65.7068 46.1618 65.7068 45.9209C65.7068 45.6803 65.9056 45.4827 66.1469 45.4827C66.3886 45.4827 66.5876 45.6803 66.5876 45.9209Z" fill="white"/>
<path d="M66.146 44.584L66.0152 45.7899L64.8153 45.9218L66.0256 46.0525L66.1579 47.303L66.2902 46.0525L67.4786 45.8986L66.2795 45.789L66.146 44.584ZM63.5036 53.5498C63.5036 53.791 63.3048 53.9892 63.0631 53.9892C62.9464 53.9887 62.8346 53.9423 62.752 53.86C62.6695 53.7777 62.6229 53.6662 62.6224 53.5498C62.6224 53.3092 62.8215 53.1116 63.0631 53.1116C63.1796 53.1121 63.2913 53.1584 63.3737 53.2404C63.4562 53.3225 63.5029 53.4336 63.5036 53.5498Z" fill="white"/>
<path d="M63.0658 52.2129L62.9335 53.4194L61.7342 53.5504L62.9446 53.6823L63.0772 54.9315L63.2095 53.6823L64.3972 53.5284L63.1973 53.4185L63.0658 52.2129ZM30.6575 17.3248C30.6575 17.5655 30.4587 17.7633 30.2174 17.7633C30.1007 17.763 29.9889 17.7167 29.9064 17.6346C29.8238 17.5525 29.7772 17.4411 29.7766 17.3248C29.7766 17.0836 29.9751 16.886 30.2174 16.886C30.4587 16.8866 30.6575 17.0842 30.6575 17.3248Z" fill="white"/>
<path d="M30.2165 15.9873L30.0842 17.1932L28.8839 17.3251L30.0949 17.4555L30.2272 18.7066L30.3589 17.4555L31.5478 17.3028L30.3476 17.1926L30.2165 15.9873ZM47.037 6.7123C47.037 6.95294 46.838 7.1511 46.5963 7.1511C46.3547 7.1511 46.1565 6.95294 46.1565 6.7123C46.1565 6.47106 46.3544 6.27291 46.5963 6.27291C46.8383 6.27291 47.037 6.47166 47.037 6.7123Z" fill="white"/>
<path d="M46.5963 5.37362L46.4652 6.58039L45.2655 6.7123L46.4762 6.84331L46.6073 8.09345L46.7396 6.84331L47.928 6.68942L46.728 6.5798L46.5963 5.37362ZM27.1234 60.5702C27.1234 60.8115 26.9247 61.009 26.6833 61.009C26.5667 61.0087 26.4549 60.9623 26.3723 60.8801C26.2898 60.7979 26.2432 60.6866 26.2426 60.5702C26.2426 60.3299 26.4414 60.1312 26.6833 60.1312C26.9247 60.1315 27.1234 60.3302 27.1234 60.5702Z" fill="white"/>
<path d="M26.6938 59.2307L26.562 60.4375L25.3621 60.5688L26.5728 60.6998L26.7048 61.9499L26.8365 60.6998L28.0254 60.5465L26.8258 60.4366L26.6938 59.2307Z" fill="white"/>
<path d="M84.9967 3.37245C79.6417 19.2107 58.1906 31.4409 40.1332 43.1158C29.2394 50.1618 18.4237 58.2714 10.9778 65.1715C9.01532 66.9912 11.3777 64.4909 10.6256 65.2595C21.0167 53.3311 32.9698 46.226 39.575 41.7534C50.7459 34.1869 57.0997 32.2799 76.3723 14.5809" fill="#F7410A"/>
<path d="M5.10734 42.6114C3.18419 43.5487 1.46158 44.4753 0 45.3799L0.889166 45.7025C2.16749 44.9179 3.70208 44.0995 5.31861 43.3784M15.26 60.3353C13.4304 61.926 11.631 63.5509 9.86277 65.2093L9.78232 66.4187C11.451 64.7042 13.5008 62.8543 15.8664 60.8905" fill="#EE293D"/>
<path d="M47.3228 53.4194C62.3346 59.5765 59.73 44.0178 51.7278 32.1043C47.192 25.3551 41.5989 20.001 37.5464 17.0182C32.8145 13.5349 32.3527 13.2461 32.3527 13.2461C42.9196 18.2464 52.5192 30.5262 56.4802 39.5731C58.3101 43.7504 63.298 60.2773 47.4104 53.5952" fill="white"/>
</g>
<defs>
<clipPath id="clip0_3_22">
<rect width="85" height="70" fill="white"/>
</clipPath>
</defs>
</svg>
